<?xml version="1.0" standalone="no"?>
<!DOCTYPE svg PUBLIC "-//W3C//DTD SVG 20010904//EN"
 "http://www.w3.org/TR/2001/REC-SVG-20010904/DTD/svg10.dtd">
<svg version="1.0" xmlns="http://www.w3.org/2000/svg"
 width="500.000000pt" height="500.000000pt" viewBox="0 0 500.000000 500.000000"
 preserveAspectRatio="xMidYMid meet">
<metadata>
Created by potrace 1.14, written by Peter Selinger 2001-2017
</metadata>
<g transform="translate(0.000000,500.000000) scale(0.100000,-0.100000)"
fill="#000000" stroke="none">
<path d="M3407 4209 c-132 -18 -283 -85 -384 -172 -140 -120 -217 -242 -265
-418 -30 -110 -33 -328 -5 -429 21 -77 74 -192 117 -255 47 -68 140 -156 208
-196 34 -20 59 -39 55 -43 -11 -10 -183 -7 -204 5 -13 6 -25 7 -32 1 -7 -5
-66 -30 -131 -57 -99 -39 -134 -48 -203 -53 -69 -4 -81 -7 -72 -18 28 -33 -43
-64 -147 -64 -77 0 -163 -23 -344 -94 -80 -31 -150 -56 -156 -56 -6 0 -19 19
-28 43 -14 36 -15 60 -6 167 10 132 21 183 51 241 25 49 83 99 117 99 20 0 23
3 12 10 -19 12 -82 -24 -121 -68 -17 -19 -34 -30 -41 -26 -6 4 -8 3 -5 -3 4
-6 1 -13 -7 -16 -39 -15 -156 -287 -201 -469 -43 -172 -46 -182 -53 -171 -4 5
-19 13 -34 16 -15 4 -34 14 -42 23 -12 12 -16 12 -16 2 0 -8 -3 -9 -8 -3 -9
13 -84 49 -95 47 -5 -2 -25 8 -45 20 -20 12 -41 23 -47 24 -24 3 -55 17 -55
25 0 5 -9 9 -21 9 -11 0 -17 5 -14 10 3 6 -1 10 -11 10 -15 0 -16 9 -11 83 l6
82 -15 -45 c-9 -25 -16 -50 -17 -56 0 -12 -26 -12 -46 1 -10 5 -12 4 -7 -3 9
-15 7 -15 -33 -1 -17 6 -31 15 -31 21 0 5 -4 7 -10 3 -16 -10 -90 43 -97 70
-2 5 -9 39 -16 75 l-13 65 -7 -40 c-14 -81 -8 -188 14 -235 32 -70 53 -86 170
-126 98 -33 111 -41 125 -70 8 -17 23 -34 32 -37 9 -3 103 -35 207 -71 105
-36 204 -66 221 -66 22 0 44 12 77 40 42 37 45 43 35 66 -16 33 -3 42 25 16
13 -12 27 -22 31 -22 4 0 17 -9 28 -20 27 -25 84 -41 115 -34 29 8 30 -9 3
-43 -25 -32 -27 -104 -4 -143 36 -60 112 -77 183 -40 55 28 58 13 6 -32 -74
-65 -81 -142 -18 -204 29 -29 40 -34 82 -34 35 0 58 7 86 26 46 31 71 26 59
-14 -5 -15 -9 -50 -9 -79 0 -44 5 -56 30 -83 60 -63 158 -61 220 4 28 30 163
121 267 180 26 14 107 46 180 70 106 35 313 118 326 130 1 2 -5 72 -13 157
-17 178 -19 334 -5 504 12 153 25 207 57 236 24 23 31 24 241 29 241 6 233 4
342 89 182 142 304 381 305 598 0 72 -3 85 -22 104 -21 21 -22 21 -22 3 1 -58
-54 -305 -65 -293 -2 2 2 40 10 84 34 208 3 456 -69 550 -13 17 -17 18 -33 5
-9 -8 -158 -170 -330 -360 -386 -427 -414 -455 -447 -446 -18 4 -77 75 -206
248 -156 209 -181 247 -181 278 0 67 86 111 135 70 9 -7 70 -85 136 -172 66
-87 126 -158 134 -158 15 0 59 47 409 440 l237 265 -48 43 c-56 50 -183 115
-265 136 -80 20 -181 26 -261 15z m-827 -2474 c-7 -8 -17 -12 -23 -8 -6 4 -3
11 8 19 23 17 32 10 15 -11z"/>
<path d="M2394 2924 c-29 -14 -64 -60 -64 -83 0 -7 22 -11 58 -11 89 0 222 12
222 20 0 4 -28 26 -62 49 -67 45 -102 51 -154 25z"/>
<path d="M894 2706 c-3 -8 -4 -23 -2 -33 3 -11 6 -6 9 15 6 34 2 42 -7 18z"/>
</g>
</svg>
