<svg width="28" height="40" viewBox="0 0 28 40" fill="none" xmlns="http://www.w3.org/2000/svg">
<path fill-rule="evenodd" clip-rule="evenodd" d="M0 14.9451C0 7.09026 6.26803 0.722656 14 0.722656C17.0556 0.722656 19.8876 1.71935 22.191 3.40978C23.032 4.02695 23.221 5.2198 22.6135 6.0741C22.006 6.92837 20.8318 7.12058 19.9909 6.50341C18.3065 5.26721 16.2398 4.53916 14 4.53916C8.34285 4.53916 3.75682 9.19807 3.75682 14.9451V15.7874C3.75682 16.8413 2.91583 17.6957 1.87842 17.6957C0.841009 17.6957 0 16.8413 0 15.7874V14.9451ZM24.186 7.99919C25.1254 7.5521 26.2437 7.96333 26.6838 8.9177C27.5288 10.7501 28 12.7944 28 14.9451V25.5002C28 33.3549 21.7321 39.7227 14 39.7227C12.7144 39.7227 11.4663 39.546 10.2794 39.2143C9.27913 38.9349 8.6913 37.8846 8.96644 36.8683C9.2416 35.8521 10.2755 35.255 11.2758 35.5345C12.1411 35.7763 13.0541 35.9061 14 35.9061C19.6571 35.9061 24.2432 31.2472 24.2432 25.5002V14.9451C24.2432 13.3654 23.898 11.873 23.2819 10.5368C22.8417 9.5824 23.2466 8.44629 24.186 7.99919ZM1.87842 19.999C2.91583 19.999 3.75682 20.8533 3.75682 21.9073V25.5002C3.75682 28.4254 4.94252 31.0658 6.85718 32.9587C7.60068 33.6937 7.6169 34.9017 6.89342 35.6571C6.16992 36.4123 4.98068 36.4289 4.23718 35.694C1.62572 33.1124 0 29.4975 0 25.5002V21.9073C0 20.8533 0.841009 19.999 1.87842 19.999Z" fill="black" fill-opacity="0.8"/>
<path fill-rule="evenodd" clip-rule="evenodd" d="M11.3782 6.60444C12.2007 6.30911 13.084 6.14925 14 6.14925C18.3442 6.14925 21.8659 9.72687 21.8659 14.1401V26.3051C21.8659 27.2357 21.7085 28.133 21.4178 28.9686C21.0721 29.9623 19.999 30.4832 19.0208 30.1318C18.0426 29.7806 17.5301 28.6904 17.8758 27.6968C18.0263 27.2639 18.109 26.7965 18.109 26.3051V14.1401C18.109 11.8347 16.2694 9.96577 14 9.96577C13.5164 9.96577 13.0562 10.0498 12.6302 10.2028C11.6521 10.554 10.5789 10.0332 10.2332 9.03954C9.88745 8.04588 10.4001 6.95565 11.3782 6.60444ZM8.60294 10.8822C9.6127 11.1239 10.2384 12.1514 10.0004 13.1772C9.92915 13.4845 9.89101 13.8065 9.89101 14.1401V26.3051C9.89101 28.6106 11.7307 30.4795 14 30.4795C14.2355 30.4795 14.4648 30.4596 14.6871 30.4218C15.7102 30.2472 16.6788 30.9485 16.8504 31.988C17.022 33.0273 16.3318 34.0113 15.3087 34.1856C14.882 34.2584 14.4445 34.296 14 34.296C9.65585 34.296 6.13418 30.7183 6.13418 26.3051V14.1401C6.13418 13.5096 6.20641 12.8939 6.34375 12.3018C6.58171 11.276 7.59317 10.6404 8.60294 10.8822Z" fill="black" fill-opacity="0.8"/>
<path fill-rule="evenodd" clip-rule="evenodd" d="M14 13.5437C15.0374 13.5437 15.8784 14.3981 15.8784 15.452V24.9934C15.8784 26.0471 15.0374 26.9014 14 26.9014C12.9626 26.9014 12.1216 26.0471 12.1216 24.9934V15.452C12.1216 14.3981 12.9626 13.5437 14 13.5437Z" fill="black" fill-opacity="0.8"/>
</svg>
