<svg width="30" height="25" viewBox="0 0 30 25" fill="none" xmlns="http://www.w3.org/2000/svg">
<path fill-rule="evenodd" clip-rule="evenodd" d="M17.7153 2.9863e-07H12.0764C9.82795 -1.47929e-05 8.0465 -2.99542e-05 6.62989 0.154145C5.17717 0.31226 3.97194 0.64361 2.93887 1.40039C2.35489 1.82821 1.83905 2.341 1.40871 2.92154C0.647418 3.94852 0.314104 5.14666 0.155062 6.59081C-2.65138e-05 7.99907 -1.46047e-05 9.77 2.91102e-07 12.0052V12.1413C-1.46047e-05 14.3765 -2.65138e-05 16.1474 0.155062 17.5557C0.314104 18.9998 0.647418 20.1979 1.40871 21.2249C1.83905 21.8055 2.35489 22.3183 2.93887 22.7461C3.97194 23.5028 5.17717 23.8342 6.62989 23.9924C8.0465 24.1465 9.82794 24.1465 12.0764 24.1465H17.7153C19.9637 24.1465 21.7452 24.1465 23.1618 23.9924C24.6145 23.8342 25.8197 23.5028 26.8529 22.7461C27.4368 22.3183 27.9526 21.8055 28.383 21.2249C29.1443 20.1979 29.4775 18.9998 29.6366 17.5557C29.7917 16.1474 29.7917 14.3765 29.7917 12.1413V12.0052C29.7917 9.77003 29.7917 7.99908 29.6366 6.59081C29.4775 5.14666 29.1443 3.94852 28.383 2.92154C27.9526 2.341 27.4368 1.82821 26.8529 1.40039C25.8197 0.64361 24.6145 0.31226 23.1618 0.154145C21.7452 -2.99542e-05 19.9637 -1.47929e-05 17.7153 2.9863e-07ZM7.87743 7.04708C7.33718 6.72484 6.63643 6.89898 6.31227 7.43606C5.98812 7.97314 6.16331 8.66975 6.70357 8.992L7.31774 9.35833C8.98936 10.3554 10.3175 11.1476 11.4647 11.6838C12.6473 12.2364 13.7213 12.559 14.8958 12.559C16.0704 12.559 17.1444 12.2364 18.3269 11.6838C19.4742 11.1476 20.8023 10.3554 22.4739 9.35835L23.0881 8.992C23.6284 8.66975 23.8035 7.97314 23.4794 7.43606C23.1553 6.89898 22.4544 6.72484 21.9142 7.04708L21.3521 7.38235C19.6168 8.41745 18.3868 9.14948 17.3562 9.63114C16.3491 10.1019 15.6172 10.2909 14.8958 10.2909C14.1745 10.2909 13.4427 10.1019 12.4354 9.63114C11.4048 9.14948 10.1749 8.41745 8.43953 7.38235L7.87743 7.04708Z" fill="black" fill-opacity="0.7"/>
</svg>
