<svg width="26" height="32" viewBox="0 0 26 32" fill="none" xmlns="http://www.w3.org/2000/svg">
<path fill-rule="evenodd" clip-rule="evenodd" d="M20.7154 1.94172C25.4522 5.18384 26.7031 11.7102 23.5093 16.5188C21.2349 19.9432 17.321 21.571 13.5494 21.057C13.4893 21.0488 13.443 21.0425 13.4032 21.0375L13.3918 21.0361C13.3621 21.0473 13.3275 21.0605 13.2825 21.0779L11.7229 21.6788C11.6221 21.7175 11.5417 21.7486 11.4728 21.7762C11.4714 21.8513 11.471 21.9387 11.4704 22.0481L11.464 23.2936C11.4629 23.5153 11.4617 23.7663 11.4371 23.9857C11.4077 24.2472 11.3365 24.569 11.1271 24.8842C10.9177 25.1995 10.6506 25.3873 10.4228 25.5129C10.2317 25.6182 10.0029 25.7136 9.80095 25.7976L8.51248 26.3347C8.4278 26.3699 8.36062 26.398 8.30305 26.4228C8.29425 26.4856 8.28483 26.5587 8.273 26.6509L8.00095 28.7703C7.97065 29.0072 7.93655 29.2735 7.8808 29.5016C7.81445 29.773 7.69335 30.1036 7.41923 30.3998C7.14512 30.6962 6.82775 30.8395 6.56505 30.9237C6.34428 30.9944 6.0845 31.0457 5.8536 31.0912L3.48851 31.5584C3.13857 31.6275 2.76649 31.7012 2.44768 31.7184C2.07785 31.7385 1.58391 31.6981 1.13126 31.3498C0.678598 31.0015 0.506678 30.5296 0.425742 30.1628C0.355959 29.8466 0.325231 29.463 0.296335 29.1024L0.0453902 25.9837L0.0365588 25.8762C9.56384e-05 25.4367 -0.0391637 24.963 0.0807634 24.4976C0.200706 24.0322 0.463358 23.6389 0.707178 23.2737L0.766739 23.1843L5.64538 15.8389C5.70914 15.7429 5.75867 15.6682 5.8003 15.6035L5.78447 15.5689C5.74485 15.483 5.69728 15.3838 5.63669 15.2577C4.07268 12.0001 4.21398 8.00317 6.35602 4.77802C9.54972 -0.03056 15.9787 -1.30042 20.7154 1.94172ZM17.1898 7.25028C19.0561 8.52773 19.549 11.0992 18.2907 12.9939C17.0323 14.8886 14.4992 15.3889 12.6328 14.1115C10.7664 12.834 10.2735 10.2625 11.5319 8.36783C12.7902 6.47318 15.3234 5.97282 17.1898 7.25028Z" fill="black" fill-opacity="0.8"/>
</svg>
